Looper 2012 HDRIP KORSUB XViD UNiQUE

[[.........why be the same as everyone else when YOU can be UNiQUE.........]]             

Format                                   : AVI
Format/Info                              : Audio Video Interleave
File size                                : 1.61 GiB
Duration                                 : 1h 58mn
Overall bit rate                         : 1 942 Kbps
Writing library                          : VirtualDubMod build 2540/release

Video
ID                                       : 0
Format                                   : MPEG-4 Visual
Format profile                           : Advanced Simple@L5
Format settings, BVOP                    : 2
Format settings, QPel                    : No
Format settings, GMC                     : No warppoints
Format settings, Matrix                  : Default (H.263)
Muxing mode                              : Packed bitstream
Codec ID                                 : XVID
Codec ID/Hint                            : XviD
Duration                                 : 1h 58mn
Bit rate                                 : 1 548 Kbps
Width                                    : 720 pixels
Height                                   : 304 pixels
Display aspect ratio                     : 2.35:1
Frame rate                               : 23.976 fps
Color space                              : YUV
Chroma subsampling                       : 4:2:0
Bit depth                                : 8 bits
Scan type                                : Progressive
Compression mode                         : Lossy
Bits/(Pixel*Frame)                       : 0.295
Stream size                              : 1.28 GiB (80%)
Writing library                          : XviD 64

Audio
ID                                       : 1
Format                                   : AC-3
Format/Info                              : Audio Coding 3
Mode extension                           : CM (complete main)
Format settings, Endianness              : Big
Codec ID                                 : 2000
Duration                                 : 1h 58mn
Bit rate mode                            : Constant
Bit rate                                 : 384 Kbps
Channel(s)                               : 6 channels
Channel positions                        : Front: L C R, Side: L R, LFE
Sampling rate                            : 44.1 KHz
Bit depth                                : 16 bits
Compression mode                         : Lossy
Stream size                              : 326 MiB (20%)
Alignment                                : Split accross interleaves
Interleave, duration                     : 42 ms (1.00 video frame)
Interleave, preload duration             : 500 ms

 
http://www.imdb.com/title/tt1276104/


Ratings: 8.0/10 from 60,588 users   Metascore: 84/100 
Reviews: 342 user | 329 critic | 44 from Metacritic.com

In 2074, when the mob wants to get rid of someone, the target is sent 30 years 
into the past, where a hired gun awaits. Someone like Joe, who one day learns 
the mob wants to 'close the loop' by transporting back Joe's future self.

Director:
Rian Johnson
Writer:
Rian Johnson
Stars:
Joseph Gordon-Levitt, Bruce Willis and Emily Blunt | See full cast and crew


Source Used


Looper.2012.KORSUB.720p.HDRip.x264.AC3-JYK...........Thanks 


Poster:

 
http://imgon.net/di-KEWW.jpg


Screenshots:

 
http://imgon.net/di-F39M.png

 
http://imgon.net/di-7KY9.png

 
http://imgon.net/di-PB8M.png


ENJOY!